<?xml version="1.0" encoding="UTF-8"?>
<svg xmlns="http://www.w3.org/2000/svg" viewBox="1210 135.8 114.4 98">
  <defs>
    <linearGradient gradientUnits="userSpaceOnUse" x1="-819.2" x2="819.2" spreadMethod="pad" gradientTransform="matrix(-0.006866455078125 -0.006866455078125 0.0206298828125 -0.0206298828125 476.1 157.9)" id="gradient0">
      <stop offset="0" stop-color="#FFCC00" />
      <stop offset="1" stop-color="#ECBC00" />
    </linearGradient>
    <linearGradient gradientUnits="userSpaceOnUse" x1="-819.2" x2="819.2" spreadMethod="pad" gradientTransform="matrix(0 0.00567626953125 -0.01031494140625 0 267 595.55)" id="gradient1">
      <stop offset="0" stop-color="#FFCC00" />
      <stop offset="1" stop-color="#FF9900" />
    </linearGradient>
    <linearGradient gradientUnits="userSpaceOnUse" x1="-819.2" x2="819.2" spreadMethod="pad" gradientTransform="matrix(-0.0078277587890625 -0.0078277587890625 0.0093231201171875 -0.0093231201171875 179 64.8)" id="gradient2">
      <stop offset="0" stop-color="#B9C6C6" />
      <stop offset="1" stop-color="#D4E2E2" />
    </linearGradient>
    <linearGradient gradientUnits="userSpaceOnUse" x1="-819.2" x2="819.2" spreadMethod="pad" gradientTransform="matrix(0.0075531005859375 -0.0075531005859375 0.0093231201171875 0.0093231201171875 155.2 64)" id="gradient3">
      <stop offset="0" stop-color="#B9C6C6" />
      <stop offset="1" stop-color="#D4E2E2" />
    </linearGradient>
    <linearGradient gradientUnits="userSpaceOnUse" x1="-819.2" x2="819.2" spreadMethod="pad" gradientTransform="matrix(0 0.00567626953125 -0.01031494140625 0 227.35 648.8)" id="gradient4">
      <stop offset="0" stop-color="#FFCC00" />
      <stop offset="1" stop-color="#FF9900" />
    </linearGradient>
  </defs>
  <g>
     <path stroke="none" fill="#464646" d="M1252.15 153.05 L1256.55 147.85 Q1256.85 147.45 1257.35 147.3 L1258.35 147.2 1279.25 150.15 1280.2 150.55 1301.05 167.05 1299.75 168.6 1278.95 152.1 1258.05 149.15 1251.25 157.2 1250.9 157.55 1252.6 155.5 1252.15 153.05" />
    <path stroke="none" fill="#808080" d="M1278.95 152.1 L1299.75 168.6 1299.9 168.7 1278.05 194.6 1256.9 178 1278.95 152.1 M1281.2 164.15 L1278.05 167.85 1282.6 171.25 1285.55 167.6 1281.2 164.15 M1284.65 175.35 L1281.35 172.75 1278.95 175.55 1282.4 178.15 1284.65 175.35" />
    <path stroke="none" fill="#747474" d="M1284.65 175.35 L1282.4 178.15 1278.95 175.55 1281.35 172.75 1284.65 175.35 M1251.25 157.2 L1258.05 149.15 1278.95 152.1 1256.9 178 1236 175.05 1236.45 174.85 1238.95 171.9 1240.9 169.6 1250.65 157.9 1251.25 157.2 M1281.2 164.15 L1285.55 167.6 1282.6 171.25 1278.05 167.85 1281.2 164.15" />
    <path stroke="none" fill="#727979" d="M1301.9 176.45 L1313.45 181.9 1314.3 182.65 1314.6 183.7 1314.6 184.95 1312.6 187.35 1312.6 183.7 1301.9 178.65 1301.9 176.45 M1281.5 216.8 L1276.2 223.2 Q1275.75 223.7 1275.1 223.85 L1273.8 223.7 1231.95 204.15 Q1231.2 203.8 1230.95 203.05 1230.65 202.3 1231 201.55 L1234 194.85 1234 193.8 1236 193.8 1236 195.3 1232.8 202.35 1274.65 221.9 1281.5 213.7 1281.5 216.8 M1220.15 167.05 L1220.15 164.15 Q1220.15 163.4 1220.65 162.85 L1234.5 146.5 Q1234.9 146 1235.6 145.85 L1236.85 146 1252.15 153.05 1252.6 155.5 1236 147.8 1222.15 164.15 1222.15 168 1220.15 167.05" />
    <path stroke="none" fill="#D4E2E2" d="M1252.6 155.5 L1250.9 157.55 1250.8 157.7 1249.7 157.2 1240.55 152.95 1237.65 151.6 1227.55 163.5 1240.9 169.6 1238.95 171.9 1222.15 164.15 1236 147.8 1252.6 155.5 M1243.25 186.9 L1248.95 189.4 1248.95 201.2 1252.35 202.8 1254.65 200.3 1254.65 192.1 1261.65 195.3 1261.65 207.15 1265.1 208.7 1267.15 206.25 1267.15 198 1274.45 201.45 1274.45 213.3 1239.65 196.9 1241.65 194.4 1241.65 188.5 1243.25 186.9 M1281.65 191.5 L1283.35 189.55 1297 195.75 1306.9 183.85 1305.35 183.15 1296.2 178.9 1293.5 177.65 1295.35 175.5 1299.9 177.7 1301.9 178.65 1312.6 183.7 1298.95 199.85 1281.65 191.5 M1280.1 203.9 L1281.5 204.65 1281.5 210.55 1280.1 212.35 1280.1 203.9" />
    <path stroke="none" fill="#B9C6C6" d="M1240.9 169.6 L1227.55 163.5 1237.65 151.6 1240.55 152.95 1249.7 157.2 1250.8 157.7 1250.65 157.9 1240.9 169.6 M1238.95 171.9 L1236.45 174.85 1222.15 168.05 1222.15 168 1222.15 164.15 1238.95 171.9 M1236 192.55 L1236 180.5 1239.65 182.1 1239.65 196.9 1236 195.3 1236 193.8 1236 192.55 M1248.95 189.4 L1248.95 186.45 1252.35 188.05 1252.35 202.8 1248.95 201.2 1248.95 189.4 M1261.65 195.3 L1261.65 192.35 1265.1 193.95 1265.1 208.7 1261.65 207.15 1261.65 195.3 M1274.45 201.45 L1274.45 198.5 1278.05 200.1 1278.05 214.85 1274.45 213.3 1274.45 201.45 M1272.95 192.45 L1271.9 191.65 1241.9 177.6 1241.35 177.5 1256.9 179.6 1272.95 192.45 M1281.5 195.75 L1281.5 191.65 1281.65 191.5 1298.95 199.85 1298.95 203.9 1281.5 195.75 M1283.35 189.55 L1293.5 177.65 1296.2 178.9 1305.35 183.15 1306.9 183.85 1297 195.75 1283.35 189.55" />
    <path stroke="none" fill="#D6D6D6" d="M1250.9 157.55 L1251.25 157.2 1250.65 157.9 1250.8 157.7 1250.9 157.55" />
    <path stroke="none" fill="#8A3F23" d="M1301.05 167.05 L1301.15 167.15 1301.7 167.85 1301.9 168.7 1301.9 176.45 1301.9 178.65 1299.9 177.7 1299.9 168.7 1299.75 168.6 1301.05 167.05 M1314.6 184.95 L1314.6 205.55 1314.15 206.85 1300.5 223.2 Q1300.05 223.7 1299.4 223.85 L1298.1 223.7 1282.05 216.15 1281.5 216.8 1281.5 213.7 1298.95 221.9 1312.6 205.55 1312.6 187.55 1312.6 187.35 1314.6 184.95 M1234 193.8 L1221.3 187.8 1220.5 187.1 Q1220.15 186.6 1220.15 186 L1220.15 167.05 1222.15 168 1222.15 168.05 1222.15 186 1236 192.55 1236 193.8 1234 193.8" />
    <path stroke="none" fill="#D26F49" d="M1236.45 174.85 L1236 175.05 1256.9 178 1278.05 194.6 1278.05 200.1 1274.45 198.5 1274.45 201.45 1267.15 198 1267.15 195.05 1266.7 194.85 1266.3 194.6 1265.1 193.95 1261.65 192.35 1261.65 195.3 1254.65 192.1 1254.65 189.15 1252.35 188.05 1248.95 186.45 1248.95 189.4 1243.25 186.9 1243.25 183.7 1241.65 183 1239.65 182.1 1236 180.5 1236 192.55 1222.15 186 1222.15 168.05 1236.45 174.85 M1241.35 177.5 L1238.95 177.1 1238.05 178.5 1276 196.2 1276 194.85 1272.95 192.45 1256.9 179.6 1241.35 177.5 M1280.1 197.5 L1280.45 197.05 1281.5 195.75 1298.95 203.9 1298.95 221.9 1281.5 213.7 1281.5 210.55 1281.5 204.65 1280.1 203.9 1280.1 197.5" />
    <path stroke="none" fill="#EC7C51" d="M1272.95 192.45 L1276 194.85 1276 196.2 1238.05 178.5 1238.95 177.1 1241.35 177.5 1241.9 177.6 1271.9 191.65 1272.95 192.45" />
    <path stroke="none" fill="#98A3A3" d="M1239.65 182.1 L1241.65 183 1241.65 188.5 1241.65 194.4 1239.65 196.9 1239.65 182.1 M1252.35 188.05 L1254.65 189.15 1254.65 192.1 1254.65 200.3 1252.35 202.8 1252.35 188.05 M1265.1 193.95 L1266.3 194.6 1266.7 194.85 1267.15 195.05 1267.15 198 1267.15 206.25 1265.1 208.7 1265.1 193.95 M1274.65 221.9 L1278.05 214.85 1278.05 200.1 1280.1 197.5 1280.1 203.9 1280.1 212.35 1281.5 210.55 1281.5 213.7 1274.65 221.9 M1298.95 203.9 L1298.95 199.85 1312.6 183.7 1312.6 187.35 1312.6 187.55 1298.95 203.9" />
    <path stroke="none" fill="#AEAEAE" d="M1241.65 183 L1243.25 183.7 1243.25 186.9 1241.65 188.5 1241.65 183" />
    <path stroke="none" fill="#E4F3F3" d="M1236 195.3 L1239.65 196.9 1274.45 213.3 1278.05 214.85 1274.65 221.9 1232.8 202.35 1236 195.3" />
    <path stroke="none" fill="#BB5F3C" d="M1278.05 194.6 L1299.9 168.7 1299.9 177.7 1295.35 175.5 1293.5 177.65 1283.35 189.55 1281.65 191.5 1281.5 191.65 1281.5 195.75 1280.45 197.05 1280.1 197.5 1278.05 200.1 1278.05 194.6 M1298.95 221.9 L1298.95 203.9 1312.6 187.55 1312.6 205.55 1298.95 221.9" />
  </g>
</svg>
