<?xml version="1.0" encoding="UTF-8"?>
<svg xmlns="http://www.w3.org/2000/svg" viewBox="116 491.3 50.55 53.15">
  <defs>
    <linearGradient gradientUnits="userSpaceOnUse" x1="-819.2" x2="819.2" spreadMethod="pad" gradientTransform="matrix(-0.006866455078125 -0.006866455078125 0.0206298828125 -0.0206298828125 476.1 157.9)" id="gradient0">
      <stop offset="0" stop-color="#FFCC00" />
      <stop offset="1" stop-color="#ECBC00" />
    </linearGradient>
    <linearGradient gradientUnits="userSpaceOnUse" x1="-819.2" x2="819.2" spreadMethod="pad" gradientTransform="matrix(0 0.00567626953125 -0.01031494140625 0 267 595.55)" id="gradient1">
      <stop offset="0" stop-color="#FFCC00" />
      <stop offset="1" stop-color="#FF9900" />
    </linearGradient>
    <linearGradient gradientUnits="userSpaceOnUse" x1="-819.2" x2="819.2" spreadMethod="pad" gradientTransform="matrix(-0.0078277587890625 -0.0078277587890625 0.0093231201171875 -0.0093231201171875 179 64.8)" id="gradient2">
      <stop offset="0" stop-color="#B9C6C6" />
      <stop offset="1" stop-color="#D4E2E2" />
    </linearGradient>
    <linearGradient gradientUnits="userSpaceOnUse" x1="-819.2" x2="819.2" spreadMethod="pad" gradientTransform="matrix(0.0075531005859375 -0.0075531005859375 0.0093231201171875 0.0093231201171875 155.2 64)" id="gradient3">
      <stop offset="0" stop-color="#B9C6C6" />
      <stop offset="1" stop-color="#D4E2E2" />
    </linearGradient>
    <linearGradient gradientUnits="userSpaceOnUse" x1="-819.2" x2="819.2" spreadMethod="pad" gradientTransform="matrix(0 0.00567626953125 -0.01031494140625 0 227.35 648.8)" id="gradient4">
      <stop offset="0" stop-color="#FFCC00" />
      <stop offset="1" stop-color="#FF9900" />
    </linearGradient>
  </defs>
  <g>
     <path stroke="none" fill="#5A6B6B" d="M149.85 507.05 L141.75 503.3 133.25 506.6 128.7 515.35 128.1 526.45 140.8 532.45 154.1 527.25 154.6 516.15 149.85 507.05 M150.7 505.25 L151.65 506.15 156.4 515.25 156.6 516.25 156.1 527.35 155.75 528.45 Q155.4 528.9 154.85 529.15 L141.55 534.35 140.75 534.45 139.95 534.25 127.25 528.25 126.4 527.5 Q126.05 526.95 126.1 526.35 L126.7 515.25 Q126.75 514.8 126.95 514.45 L131.5 505.7 Q131.8 505 132.55 504.75 L141.05 501.45 141.85 501.3 142.6 501.5 150.7 505.25" />
    <path stroke="none" fill="#A4AFAF" d="M133.25 506.6 L141.75 503.3 149.85 507.05 149.45 514.2 140.95 517.55 140.8 532.45 128.1 526.45 132.9 513.75 133.25 506.6" />
    <path stroke="none" fill="#879393" d="M133.25 506.6 L132.9 513.75 128.1 526.45 128.7 515.35 133.25 506.6 M149.85 507.05 L154.6 516.15 154.1 527.25 149.45 514.2 149.85 507.05" />
    <path stroke="none" fill="#B5C2C2" d="M154.1 527.25 L140.8 532.45 140.95 517.55 149.45 514.2 154.1 527.25" />
  </g>
</svg>
