<?xml version="1.0" encoding="UTF-8"?>
<svg xmlns="http://www.w3.org/2000/svg" viewBox="494.6 206.8 37.6 60.05">
  <defs>
    <linearGradient gradientUnits="userSpaceOnUse" x1="-819.2" x2="819.2" spreadMethod="pad" gradientTransform="matrix(-0.006866455078125 -0.006866455078125 0.0206298828125 -0.0206298828125 476.1 157.9)" id="gradient0">
      <stop offset="0" stop-color="#FFCC00" />
      <stop offset="1" stop-color="#ECBC00" />
    </linearGradient>
    <linearGradient gradientUnits="userSpaceOnUse" x1="-819.2" x2="819.2" spreadMethod="pad" gradientTransform="matrix(0 0.00567626953125 -0.01031494140625 0 267 595.55)" id="gradient1">
      <stop offset="0" stop-color="#FFCC00" />
      <stop offset="1" stop-color="#FF9900" />
    </linearGradient>
    <linearGradient gradientUnits="userSpaceOnUse" x1="-819.2" x2="819.2" spreadMethod="pad" gradientTransform="matrix(-0.0078277587890625 -0.0078277587890625 0.0093231201171875 -0.0093231201171875 179 64.8)" id="gradient2">
      <stop offset="0" stop-color="#B9C6C6" />
      <stop offset="1" stop-color="#D4E2E2" />
    </linearGradient>
    <linearGradient gradientUnits="userSpaceOnUse" x1="-819.2" x2="819.2" spreadMethod="pad" gradientTransform="matrix(0.0075531005859375 -0.0075531005859375 0.0093231201171875 0.0093231201171875 155.2 64)" id="gradient3">
      <stop offset="0" stop-color="#B9C6C6" />
      <stop offset="1" stop-color="#D4E2E2" />
    </linearGradient>
    <linearGradient gradientUnits="userSpaceOnUse" x1="-819.2" x2="819.2" spreadMethod="pad" gradientTransform="matrix(0 0.00567626953125 -0.01031494140625 0 227.35 648.8)" id="gradient4">
      <stop offset="0" stop-color="#FFCC00" />
      <stop offset="1" stop-color="#FF9900" />
    </linearGradient>
  </defs>
  <g>
    <path stroke="none" fill="#727979" d="M518.85 250.1 L518.4 250.25 517.1 250.1 513.6 248.45 512.8 247.75 Q512.45 247.25 512.45 246.65 L512.45 246.55 512.45 238.35 512.7 237.4 513.4 236.15 513.4 231.85 512 233.5 510.9 234.15 509.6 234.05 505.7 232.25 504.9 231.5 Q504.55 231 504.55 230.4 L504.55 227.95 Q504.55 227.2 505.05 226.65 L509.7 221.15 Q510.1 220.65 510.8 220.5 L511.8 220.55 513.9 218.1 514.45 217.65 515.45 217.1 Q515.85 216.85 516.35 216.85 L517.3 217.05 519.6 218.15 520.3 218.75 520.8 219.4 Q521.2 219.9 521.2 220.6 L521.2 235.4 521.8 236.2 Q522.15 236.7 522.15 237.35 L522.15 245.7 Q522.15 246.45 521.7 247 L519.5 249.6 518.85 250.1 M517.95 248.3 L520.15 245.7 520.15 237.35 519.2 236 519.2 220.6 518.7 219.95 516.4 218.85 515.4 219.4 512.35 223 511.2 222.45 506.55 227.95 506.55 230.4 510.45 232.2 515.4 226.45 515.4 236.65 514.45 238.35 514.45 246.65 517.95 248.3" />
    <path stroke="none" fill="#A6B1B1" d="M515.4 219.4 L516.4 218.85 518.7 219.95 519.2 220.6 519.2 236 520.15 237.35 520.15 245.7 517.95 248.3 517.95 240 517.75 237.7 517.75 222.3 515.4 225.05 515.4 226.45 510.45 232.2 506.55 230.4 506.55 227.95 510.45 229.75 515.1 224.25 514.7 224.1 517.75 220.45 515.4 219.4" />
    <path stroke="none" fill="#D5E5E5" d="M515.4 219.4 L517.75 220.45 514.7 224.1 515.1 224.25 510.45 229.75 506.55 227.95 511.2 222.45 512.35 223 515.4 219.4 M517.75 237.7 L517.95 240 514.45 238.35 515.4 236.65 517.75 237.7" />
    <path stroke="none" fill="#B9C6C6" d="M517.75 237.7 L515.4 236.65 515.4 226.45 515.4 225.05 517.75 222.3 517.75 237.7 M517.95 240 L517.95 248.3 514.45 246.65 514.45 238.35 517.95 240" />
    <path stroke="none" fill="#000000" fill-opacity="0.10196078431372549" d="M518.85 250.1 L513.1 256.9 506.55 253.5 512.45 246.55 512.45 246.65 Q512.45 247.25 512.8 247.75 L513.6 248.45 517.1 250.1 518.4 250.25 518.85 250.1" />
  </g>
</svg>
