<?xml version="1.0" encoding="UTF-8"?>
<svg xmlns="http://www.w3.org/2000/svg" viewBox="390.4 470.3 71.55 85.15">
  <defs>
    <linearGradient gradientUnits="userSpaceOnUse" x1="-819.2" x2="819.2" spreadMethod="pad" gradientTransform="matrix(-0.006866455078125 -0.006866455078125 0.0206298828125 -0.0206298828125 476.1 157.9)" id="gradient0">
      <stop offset="0" stop-color="#FFCC00" />
      <stop offset="1" stop-color="#ECBC00" />
    </linearGradient>
    <linearGradient gradientUnits="userSpaceOnUse" x1="-819.2" x2="819.2" spreadMethod="pad" gradientTransform="matrix(0 0.00567626953125 -0.01031494140625 0 267 595.55)" id="gradient1">
      <stop offset="0" stop-color="#FFCC00" />
      <stop offset="1" stop-color="#FF9900" />
    </linearGradient>
    <linearGradient gradientUnits="userSpaceOnUse" x1="-819.2" x2="819.2" spreadMethod="pad" gradientTransform="matrix(-0.0078277587890625 -0.0078277587890625 0.0093231201171875 -0.0093231201171875 179 64.8)" id="gradient2">
      <stop offset="0" stop-color="#B9C6C6" />
      <stop offset="1" stop-color="#D4E2E2" />
    </linearGradient>
    <linearGradient gradientUnits="userSpaceOnUse" x1="-819.2" x2="819.2" spreadMethod="pad" gradientTransform="matrix(0.0075531005859375 -0.0075531005859375 0.0093231201171875 0.0093231201171875 155.2 64)" id="gradient3">
      <stop offset="0" stop-color="#B9C6C6" />
      <stop offset="1" stop-color="#D4E2E2" />
    </linearGradient>
    <linearGradient gradientUnits="userSpaceOnUse" x1="-819.2" x2="819.2" spreadMethod="pad" gradientTransform="matrix(0 0.00567626953125 -0.01031494140625 0 227.35 648.8)" id="gradient4">
      <stop offset="0" stop-color="#FFCC00" />
      <stop offset="1" stop-color="#FF9900" />
    </linearGradient>
  </defs>
  <g>
      <path stroke="none" fill="#115F32" d="M414 501.45 L414 500.55 Q414 499.8 414.5 499.25 L426.35 485.25 Q426.6 484.9 427.05 484.75 L436.55 480.4 437.85 480.3 Q438.55 480.45 439 481.05 L448.3 493.85 446.9 495.45 446.9 495.35 437.35 482.2 427.85 486.55 416 500.55 416 500.6 414 501.45" />
    <path stroke="none" fill="#CBBD9E" d="M416 500.6 L416 500.55 425.55 496.4 434.85 509.35 434.85 524.55 416 515.8 416 500.6 M422.95 537.65 L420.9 536.6 420.7 536.45 420.7 530.5 425 532.4 425 538.6 425 538.65 422.95 537.65 M435.6 543.5 L434.85 528.25 446.9 514.2 446.95 514.3 449.95 526.6 435.6 543.5" />
    <path stroke="none" fill="#1B914D" d="M437.35 482.2 L446.9 495.35 434.85 509.35 425.55 496.4 437.35 482.2" />
    <path stroke="none" fill="#726A59" d="M448.3 493.85 L448.55 494.2 Q448.9 494.7 448.9 495.35 L448.9 508.3 446.9 510.6 446.9 495.45 448.3 493.85 M448.9 512 L448.9 513.95 451.9 526.15 451.9 527.05 451.5 527.9 437.15 544.8 Q436.7 545.3 436.05 545.45 L434.75 545.35 411.9 534.75 Q411.25 534.4 410.95 533.8 410.65 533.1 410.8 532.45 L414 519.2 414 518.65 416 519.55 412.75 532.9 422.95 537.65 425 538.65 425 538.6 435.6 543.5 449.95 526.6 446.95 514.3 448.9 512 M414 514.85 L414 501.45 416 500.6 416 515.8 414 514.85" />
    <path stroke="none" fill="#ECDCB8" d="M416 519.55 L416 519.45 434.85 528.25 435.6 543.5 425 538.6 425 532.4 420.7 530.5 420.7 536.45 420.9 536.6 422.95 537.65 412.75 532.9 416 519.55" />
    <path stroke="none" fill="#775029" d="M416 519.55 L414 518.65 414 514.85 416 515.8 416 519.45 416 519.55 M448.9 508.3 L448.9 512 446.95 514.3 446.9 514.2 446.9 510.6 448.9 508.3" />
    <path stroke="none" fill="#BB8044" d="M416 519.45 L416 515.8 434.85 524.55 434.85 528.25 416 519.45" />
    <path stroke="none" fill="#936434" d="M434.85 528.25 L434.85 524.55 446.9 510.6 446.9 514.2 434.85 528.25" />
    <path stroke="none" fill="#14723C" d="M416 500.55 L427.85 486.55 437.35 482.2 425.55 496.4 416 500.55" />
    <path stroke="none" fill="#B8AC8F" d="M446.9 495.35 L446.9 495.45 446.9 510.6 434.85 524.55 434.85 509.35 446.9 495.35" />
    
    <path stroke="none" fill="#775029" d="M444.95 507.1 L446.35 505.35 441.55 499.2 427.1 504 425.55 505.75 424.7 504.65 424.7 502.7 410.2 484.55 405.4 486.05 404.1 487.6 400.85 488.3 400.85 488.25 403.9 484.75 Q404.25 484.3 404.8 484.15 L409.6 482.65 Q410.2 482.45 410.8 482.65 L411.8 483.3 426.3 501.45 426.6 502.05 440.95 497.3 Q441.5 497.1 442.15 497.3 442.75 497.45 443.15 498 L447.95 504.15 Q448.35 504.7 448.35 505.4 448.35 506.1 447.9 506.65 L446.2 508.75 444.95 507.1 M435.75 513.45 L447.95 528.8 Q448.35 529.35 448.35 530.05 448.35 530.75 447.9 531.3 L446.6 532.9 445.3 531.35 445.35 531.35 446.35 530.05 432.4 512.45 435.75 513.45 M422.7 518.2 L422.4 517.75 422.5 517.65 422.7 518.2 M400.45 513.75 Q400.55 513.3 400.9 512.95 L403.95 509.7 404.8 509.15 413.25 506.3 416.6 507.3 405.4 511.05 404 512.6 400.45 513.75 M425.55 511.05 L426.5 512.15 424.25 514.95 424.1 512.95 425.55 511.05" />
    <path stroke="none" fill="#986736" d="M425.55 511.05 L424.1 512.95 423.95 511.2 424.8 510.1 425.55 511.05 M404.1 487.6 L405.4 486.05 410.2 484.55 408.35 486.65 404.1 487.6 M424.7 502.7 L424.7 504.65 421.8 507.95 421.8 506.2 423.25 504.45 424.7 502.7 M425.55 505.75 L427.1 504 441.55 499.2 440.1 500.95 425.55 505.75 M416.6 507.3 L417.65 508.1 403.95 512.65 404 512.6 405.4 511.05 416.6 507.3" />
    <path stroke="none" fill="#D7924E" d="M410.2 484.55 L424.7 502.7 423.25 504.45 408.35 486.65 410.2 484.55 M424.7 504.65 L425.55 505.75 425.45 505.95 424.25 507.3 424.25 509.3 424.8 510.1 423.95 511.2 421.45 508.35 421.8 507.95 424.7 504.65 M441.55 499.2 L446.35 505.35 444.95 507.1 440.1 500.95 441.55 499.2 M430 513.15 L432.4 512.4 432.4 512.45 446.35 530.05 445.35 531.35 430 513.15" />
    <path stroke="none" fill="#B1A58A" d="M424.25 507.3 L425.45 505.95 425.55 505.75 440.1 500.95 438.65 502.7 424.25 507.3 M426.5 512.15 L426.65 512.35 427.5 512.8 426.65 514.3 424.25 514.95 426.5 512.15 M408.35 486.65 L407.15 488.05 404.75 488.8 404.15 489 403.7 489.15 402.35 489.55 404.1 487.6 408.35 486.65 M417.65 508.1 L418.1 508.4 416.8 509.75 402.35 514.3 402.45 514.25 403.95 512.65 417.65 508.1" />
    <path stroke="none" fill="#D7C8A7" d="M443.5 508.85 L438.65 502.7 440.1 500.95 444.95 507.1 443.5 508.85 M427.5 512.8 L429.05 513.45 430 513.15 445.35 531.35 445.3 531.35 443.6 533.5 443.5 533.6 429.05 515.4 426.65 514.3 427.5 512.8 M407.15 488.05 L408.35 486.65 423.25 504.45 421.8 506.2 407.15 488.05 M418.1 508.4 L418.35 508.55 418.65 508.7 419.4 509.05 421.45 508.35 423.95 511.2 424.1 512.95 421.8 515.85 421.8 513.85 419.4 510.8 416.8 509.75 418.1 508.4" />
    <path stroke="none" fill="#ECDCB8" d="M438.65 502.7 L443.5 508.85 432.4 512.4 430 513.15 429.05 513.45 427.5 512.8 426.65 512.35 426.5 512.15 425.55 511.05 424.8 510.1 424.25 509.3 424.25 507.3 438.65 502.7 M407.15 488.05 L421.8 506.2 421.8 507.95 421.45 508.35 419.4 509.05 418.65 508.7 418.35 508.55 418.1 508.4 417.65 508.1 416.6 507.3 402.4 489.6 402.35 489.55 403.7 489.15 404.15 489 404.75 488.8 407.15 488.05 M416.8 509.75 L419.4 510.8 421.8 513.85 421.8 515.85 407.15 520.45 402.35 514.3 416.8 509.75 M443.5 533.6 L438.65 535.15 424.25 516.95 424.25 514.95 426.65 514.3 429.05 515.4 443.5 533.6" />
    <path stroke="none" fill="#726A59" d="M443.5 533.6 L443.6 533.5 445.3 531.35 446.6 532.9 445.05 534.85 444.85 535.1 444.1 535.5 439.25 537.05 438.1 537.1 437.1 536.4 422.7 518.2 422.5 517.65 422.4 517.75 407.75 522.35 Q407.15 522.55 406.55 522.35 L405.6 521.7 400.8 515.55 400.45 514.85 400.35 514.2 400.45 513.75 404 512.6 403.95 512.65 402.45 514.25 402.35 514.3 407.15 520.45 421.8 515.85 424.1 512.95 424.25 514.95 424.25 516.95 438.65 535.15 443.5 533.6 M400.85 488.3 L404.1 487.6 402.35 489.55 402.4 489.6 416.6 507.3 413.25 506.3 400.8 490.8 400.45 490.2 400.35 489.5 Q400.35 488.8 400.85 488.3 M444.95 507.1 L446.2 508.75 445.05 510.15 444.75 510.45 444.1 510.75 435.75 513.45 432.4 512.45 432.4 512.4 443.5 508.85 444.95 507.1" />
  </g>
</svg>
