<svg viewBox="520 300 120 140" xmlns="http://www.w3.org/2000/svg"><path fill="#ecdcb8" d="m538.35 324.3 27.5-16.05h.05L580 300l60 35v70l-60 35-60-35v-70l17.25-10.05.05-.05h.05zm78.75 12.55q-19.15 4.75-27.55 23.25-1.5 3.25-2.6 6.85-1.55 6.05-4.4 11l-2.6 3.9Q572.1 392.2 557 396.9l.05.05q-11.9 2.95-19.6 11.2l30.3 17.65 1-1.7 2-3.95q1.45-3.25 2.4-7 2.55-8.25 6.8-14.35 8.35-11.95 23.15-15.6l-.05-.05q17.95-5.55 25.75-19.1l2-3.95q1.5-3.3 2.4-7.05l.8-2.35V342q0-1.6-.8-3-.85-1.4-2.2-2.15h.05l-5.65-3.3q-3.85 1.85-8.35 3.25zm15.4 41.95.75-6.55-6.55-.8-.75 6.6zm-1.5 24.4q1.35-.8 2.2-2.2.8-1.4.8-2.95v-9.95q-6.85 5.65-16.95 8.8l.05.05q-19.15 4.75-27.55 23.2-1.5 3.25-2.6 6.85l-.65 2.3 44.75-26.1zm-25.15-81.05L585.9 310.5q-1.4 3.95-3.35 7.35l-2.6 3.9Q572.1 332.1 557 336.8l.05.05q-19.15 4.75-27.55 23.25-1.5 3.25-2.65 6.85l-.85 2.95v22q7.05-6.25 17-8.7l-.05-.05q18-5.55 25.8-19.1l2-3.95q1.45-3.3 2.4-7.05 2.55-8.2 6.8-14.3 8.35-12 23.15-15.65l-.05-.05zM583 418.6l-4 1.85 1.75 4 4-1.85zm11.35-21 6.15 2.4 2.45-6.1-6.15-2.45zm14.1-12.8-1.2 2.95 2.9 1.2 1.25-2.9zm-1.2 10.7h4.55v-4.55h-4.6zm-25.95 9.25-1.05 1.95 1.9 1 1.15-1.95zm-9.4-24.7 7.1-1.1-1.05-7-7.1 1.1zm6.9-18.6h-4.6l.05 4.55h4.55zm-27.45 26.9 6.55 3.5 3.6-6.65-6.6-3.55zm-4.25.55-1 4 4.05 1 1-4.05zm-13.5-44.95 3.85-2.8-2.85-3.75-3.75 2.8zm-1.5 4-.85-2.05-2 .9.85 2.1zm12.55-9.6-2.55-3.25-3.25 2.6 2.6 3.25zm51.05 4.7 3.15.4.45-3.1-3.2-.45zm-22.35-20.45-.7-4.35-4.35.7.7 4.35zm29.2 8.5q-2 .95-4 1.85l1.75 4 4-1.85z"/><path fill="#e5d5b2" d="m602.55 331.1 1.75 4-4 1.85-1.75-4q2-.9 4-1.85m14.55 5.75-.05-.05q4.5-1.4 8.35-3.25l5.65 3.3H631q1.35.75 2.2 2.15.8 1.4.8 3v8.7l-.8 2.35q-.9 3.75-2.4 7.05l-2 3.95q-7.8 13.55-25.75 19.1l.05.05q-14.8 3.65-23.15 15.6-4.25 6.1-6.8 14.35-.95 3.75-2.4 7l-2 3.95-1 1.7-30.3-17.65q7.7-8.25 19.6-11.2l-.05-.05q15.1-4.7 22.95-15.05l2.6-3.9q2.85-4.95 4.4-11 1.1-3.6 2.6-6.85 8.4-18.5 27.55-23.25m15.4 41.95-6.55-.75.75-6.6 6.55.8zm-26.65-56.65-2.8.9.05.05q-14.8 3.65-23.15 15.65-4.25 6.1-6.8 14.3-.95 3.75-2.4 7.05l-2 3.95q-7.8 13.55-25.8 19.1l.05.05q-9.95 2.45-17 8.7v-22l.85-2.95q1.15-3.6 2.65-6.85 8.4-18.5 27.55-23.25l-.05-.05q15.1-4.7 22.95-15.05l2.6-3.9q1.95-3.4 3.35-7.35zM631 403.2h.05l-44.75 26.1.65-2.3q1.1-3.6 2.6-6.85 8.4-18.45 27.55-23.2l-.05-.05q10.1-3.15 16.95-8.8v9.95q0 1.55-.8 2.95-.85 1.4-2.2 2.2m-57.65-80.6-4.35.7-.7-4.35 4.35-.7zm22.35 20.45.4-3.15 3.2.45-.45 3.1zm-51.05-4.7-3.2 2.6-2.6-3.25 3.25-2.6zm-12.55 9.6-2 .95-.85-2.1 2-.9zm1.5-4-2.75-3.75 3.75-2.8 2.85 3.75zm13.5 44.95 4.05.95-1 4.05-4.05-1zm4.25-.55 3.55-6.7 6.6 3.55-3.6 6.65zm27.45-26.9V366h-4.55l-.05-4.55zm-6.9 18.6-1.05-7 7.1-1.1 1.05 7zm9.4 24.7 2 1-1.15 1.95-1.9-1zm25.95-9.25-.05-4.55h4.6v4.55zm1.2-10.7 2.95 1.25-1.25 2.9-2.9-1.2zm-14.1 12.8 2.45-6.15 6.15 2.45-2.45 6.1zm-11.35 21 1.75 4-4 1.85-1.75-4z"/></svg>