<svg viewBox="520 450 120 140" xmlns="http://www.w3.org/2000/svg"><path fill="#e0d1af" d="m537.3 324.9 1.05-.6-1 .6z"/><path fill="#bb6444" d="m620.6 546.65-4.1 3.35 3.35 4.1 4.15-3.35zm-5.2-41.45-2.2-4.9-4.8 2.2 2.15 4.85zm20.85-1.05-5.35-.5-.5 5.3 5.25.5zm-24.05-24.8.55-5.25-5.25-.55-.55 5.3zm14.85 10.45 5 1.95 1.85-5.05-4.95-1.9zm-63.4-14.85L560 478.8l3.85 3.65 3.65-3.85zM525.4 489.7l-3.1 4.25 4.25 3.1 3.1-4.3zm18 12.45-9.5-2.15-2.1 9.55 9.45 2.1zm2.65.35 2.15 4.85 4.8-2.15-2.15-4.9zm-.9-28.95-.55 5.3 5.25.5.55-5.25zm60.6 28.6-9.5-2.15-2.1 9.55 9.45 2.1zm-1.5-9.3 7.25-2.3-2.3-7.25-7.25 2.3zM587 505.6l4.45-1.5-1.5-4.5-4.5 1.55zm-12.55-11.05 5.25-.6-.6-5.3-5.25.65zM582.2 464l4.85-2.15-2.15-4.8-4.9 2.15zm-25.8 34.5 2.25 7.2 7.25-2.25-2.3-7.25zm-2.25-10.85 3.35 4.1 4.15-3.35-3.4-4.1zm10.5 2.15 5.05 1.95 1.85-5.05-5-1.9zM580 450l60 35v70l-60 35-60-35v-70zm22.6 76.75-6.7-6.15-6.2 6.7 6.75 6.2zm-20.4-.35 4.85-2.2-2.15-4.8-4.9 2.15zm5.45 10.1-2.45 9.6 9.55 2.55 2.5-9.65zm-10.5-9.75h-.05l-7.3 1.75 1.7 7.4 7.4-1.75zm24.8 21.2 2.3 7.25 7.25-2.25-2.3-7.3zm-61.7-21.2-6.7-6.15-6.2 6.7 6.7 6.2zm21.65-9 .4-3.7-9.35-1.05-1.05 9.3 9.3 1.05.65-5.6zm45.6 18.2-.55 5.25 5.25.5.55-5.25zm-62.35 0-.55 5.25 5.25.5.55-5.25zm9 14.05 3.35 4.1 4.15-3.35-3.4-4.1zm-21.75-1.35 2.5-9.65-9.6-2.5-2.5 9.6zm32.25 3.5 5.05 1.95 1.85-5-5-1.9zm-17.4 14.15q2.4-1.05 4.8-2.15l-2.2-4.9-4.75 2.2zm59.45-4.2-9.5-2.15-2.1 9.55 9.45 2.1zm-48.05 6 7.25-2.3-2.3-7.2-7.2 2.25zm32.8-1.65-1.5-4.5-4.5 1.55L587 568zm-11.8 12 5.25-.8-.85-5.25-5.2.85zM618 526l-3.1 4.3 4.35 3.1 3.05-4.3zm5.55-2.65.65-5.6h.05l.4-3.7-9.3-1.05-1.1 9.3zm5.4 23.85-1.9 4.95 5 1.95 1.85-5z"/><path fill="#c26948" d="m628.95 547.2 4.95 1.9-1.85 5-5-1.95zm-13.55-42-4.85 2.15-2.15-4.85 4.8-2.2zm11.65-15.4 1.9-5 4.95 1.9-1.85 5.05zm-14.85-10.45-5.25-.5.55-5.3 5.25.55zm-67.05-5.8 5.25.55-.55 5.25-5.25-.5zm.9 28.95 4.8-2.2 2.15 4.9-4.8 2.15zm-2.65-.35-2.15 9.5-9.45-2.1 2.1-9.55zm38.8 24.25-2.2-4.85 4.9-2.15 2.15 4.8zm19.75 21.55 7.25-2.3 2.3 7.3-7.25 2.25zm-56.8-12 5.25.5-.55 5.25-5.25-.5zm19.5 16.2 1.9-4.95 5 1.9-1.85 5zm-6 15.95-2.25-7.25 7.2-2.25 2.3 7.2zm48.05-6-2.15 9.5-9.45-2.1 2.1-9.55zM618 526l4.3 3.1-3.05 4.3-4.35-3.1z"/><path fill="#b55f40" d="m636.25 504.15-.6 5.3-5.25-.5.5-5.3zM525.4 489.7l4.25 3.05-3.1 4.3-4.25-3.1zm38.25-14.75 3.85 3.65-3.65 3.85-3.85-3.65zm1 14.85 1.9-5 5 1.9-1.85 5.05zm-10.5-2.15 4.1-3.35 3.4 4.1-4.15 3.35zm2.25 10.85 7.2-2.3 2.3 7.25-7.25 2.25zm25.8-34.5-2.2-4.8 4.9-2.15 2.15 4.8zm-7.75 30.55-.6-5.25 5.25-.65.6 5.3zM587 505.6l-1.55-4.45 4.5-1.55 1.5 4.5zm17.25-12.75-2.3-7.25 7.25-2.3 2.3 7.25zm1.5 9.3-2.15 9.5-9.45-2.1 2.1-9.55zm-3.15 24.6-6.15 6.75-6.75-6.2 6.2-6.7zm-25.45 0 1.75 7.4-7.4 1.75-1.7-7.4 7.3-1.75zm10.5 9.75 9.6 2.5-2.5 9.65-9.55-2.55zm19.85-.55 5.25.5-.55 5.25-5.25-.5zm-45.6-18.2h-.05l-.65 5.6-9.3-1.05 1.05-9.3 9.35 1.05zm-21.65 9-6.2 6.75-6.7-6.2 6.2-6.7zm-7.85 21.9-9.6-2.55 2.5-9.6 9.6 2.5zm21.75 1.35 4.1-3.35 3.4 4.1-4.15 3.35zm-6.9 16.3-2.15-4.85 4.75-2.2 2.2 4.9q-2.4 1.1-4.8 2.15m32.4 12.15-.8-5.2 5.2-.85.85 5.25zm11.8-12L587 568l-1.55-4.5 4.5-1.55zm32.1-43.1-9.3-1.05 1.1-9.3 9.3 1.05-.4 3.7h-.05zm-2.95 23.3 3.4 4.1-4.15 3.35-3.35-4.1z"/></svg>